<?xml version="1.0" encoding="UTF-8"?>
<svg id="Camada_2" data-name="Camada 2" xmlns="http://www.w3.org/2000/svg" viewBox="0 0 948.89 144.61">
  <defs>
    <style>
      .cls-1 {
        fill: #daff38;
      }
    </style>
  </defs>
  <g id="Camada_1-2" data-name="Camada 1">
    <path class="cls-1" d="m88.87,44.73h-55.44L0,99.88h55.44l33.43-55.15Zm190.98,29.6c4.97-5.74,9.69-12.3,14.16-19.67,4.47-7.37,7.7-13.93,9.69-19.67,1.99-5.74,3.01-10.53,3.07-14.35.05-3.83-1.12-7.05-3.49-9.68-2.38-2.62-4.92-4.64-7.6-6.06-2.69-1.42-6.59-2.52-11.72-3.3-5.13-.78-9.67-1.24-13.62-1.38-3.96-.14-9.12-.21-15.5-.21H125.75L38.09,144.61h62.52l21.53-35.51h66.56c6.38,0,11.63-.07,15.76-.21,4.13-.14,9.22-.6,15.3-1.38,6.07-.78,11.29-1.84,15.65-3.19,4.36-1.35,9.34-3.37,14.94-6.06,5.6-2.69,10.67-5.92,15.22-9.68,4.54-3.75,9.3-8.51,14.27-14.25Zm-40.28-19.67c-2.32,3.83-4.9,6.2-7.72,7.12-2.83.92-8.49,1.38-17,1.38h-64.86l10.44-17.22h64.86c8.51,0,13.61.46,15.32,1.38,1.71.92,1.36,3.37-1.04,7.34ZM338.83,0l-87.66,144.61h62.31L401.14,0h-62.31Zm549.64,0h-78.9l-87.58,144.61h65.07l12.57-20.63h75.49l8.7,20.63h65.07L888.46,0Zm-66.85,82.3l23.81-42.96,15.53,42.96h-39.34Zm-403.44,15.52L477.48,0h-62.52l-87.66,144.61h177.14l28.36-46.78h-114.62ZM740.32,0l-33.52,55.29h-71.88L668.44,0h-62.52l-87.66,144.61h62.52l33.13-54.65h71.88l-33.13,54.65h62.52L802.84,0h-62.52Z"/>
  </g>
</svg>